<?xml version="1.0" encoding="utf-8"?>
<!-- Generator: Adobe Illustrator 15.1.0, SVG Export Plug-In . SVG Version: 6.00 Build 0)  -->
<!DOCTYPE svg PUBLIC "-//W3C//DTD SVG 1.1//EN" "http://www.w3.org/Graphics/SVG/1.1/DTD/svg11.dtd">
<svg version="1.1" id="Layer_1" xmlns="http://www.w3.org/2000/svg" xmlns:xlink="http://www.w3.org/1999/xlink" x="0px" y="0px"
	 width="39.01px" height="44.011px" viewBox="0 0 39.01 44.011" enable-background="new 0 0 39.01 44.011" xml:space="preserve">
<g>
	<polygon fill="none" points="30.01,28.011 27.01,28.011 27.01,32.011 23.01,32.011 23.01,35.011 27.01,35.011 27.01,39.011 
		30.01,39.011 30.01,35.011 34.01,35.011 34.01,32.011 30.01,32.011 	"/>
	<path fill="none" d="M22,11V2H2v37h16.01V26.011c0-1.656,1.344-3,3-3H31V11H22z"/>
	<path fill="#323232" d="M2,39V2h20v9h9v12.011h2V11.006L32.994,11H33L22,0v0.037L21.963,0H2C0.896,0,0,0.896,0,2v37
		c0,1.105,0.896,2,2,2h16.01v-2H2z"/>
	<path fill="#71BC44" d="M36.01,23.011H33h-2h-9.99c-1.656,0-3,1.344-3,3V39v2v0.012c0,1.656,1.344,3,3,3h15c1.656,0,3-1.344,3-3
		v-15C39.01,24.355,37.666,23.011,36.01,23.011z M34.01,35.011h-4v4h-3v-4h-4v-3h4v-4h3v4h4V35.011z"/>
</g>
</svg>
