<?xml version="1.0" encoding="utf-8"?>
<!-- Generator: Adobe Illustrator 15.1.0, SVG Export Plug-In . SVG Version: 6.00 Build 0)  -->
<!DOCTYPE svg PUBLIC "-//W3C//DTD SVG 1.1//EN" "http://www.w3.org/Graphics/SVG/1.1/DTD/svg11.dtd">
<svg version="1.1" id="Layer_1" xmlns="http://www.w3.org/2000/svg" xmlns:xlink="http://www.w3.org/1999/xlink" x="0px" y="0px"
	 width="114px" height="114px" viewBox="555 339 114 114" enable-background="new 555 339 114 114" xml:space="preserve">
<path fill="#B4D780" d="M667,452.999h-3h-11h-82h-11h-3c-1.104,0-2-0.895-2-2v-3v-11v-82v-11v-3c0-1.104,0.896-2,2-2h3h11h82h11h3
	c1.104,0,2,0.896,2,2v3v11v82v11v3C669,452.104,668.104,452.999,667,452.999z"/>
<g>
	
		<image overflow="visible" opacity="0.05" enable-background="new    " width="850" height="779" xlink:href="C63C78E7.png"  transform="matrix(0.24 0 0 0.2378 510 312.7822)">
	</image>
	<g>
		<path fill="#D2E6AC" d="M557,452.999h3h11h82h11h3c1.104,0,2-0.895,2-2v-3v-5.995c-13.315-5.738-35.852-7.315-42.776-15.755
			c-2.041-2.486-2.041-2.486-0.674-11.725c2.334-10.34,4.45-3.922,7.788-24.542c2.805-17.319-3.179-32.2-21.338-32.2
			c-18.16,0-24.141,14.881-21.338,32.2c3.337,20.62,5.452,14.202,7.788,24.542c1.367,9.237,1.367,9.237-0.672,11.725
			c-6.925,8.439-29.463,10.017-42.778,15.756v5.994v3C555,452.104,555.896,452.999,557,452.999z"/>
	</g>
</g>
<path fill="#D2E6AC" stroke="#8DC63F" stroke-linecap="round" stroke-miterlimit="10" d="M668.482,442.004
	c-13.315-5.738-35.334-7.315-42.26-15.755c-2.041-2.486-2.041-2.486-0.674-11.725c2.334-10.34,4.45-3.922,7.788-24.542
	c2.805-17.319-3.179-32.2-21.338-32.2c-18.16,0-24.141,14.881-21.338,32.2c3.337,20.62,5.452,14.202,7.788,24.542
	c1.367,9.237,1.367,9.237-0.672,11.725c-6.926,8.439-29.014,10.017-42.328,15.756"/>
</svg>
