<?xml version="1.0" encoding="utf-8"?>
<!-- Generator: Adobe Illustrator 16.0.4, SVG Export Plug-In . SVG Version: 6.00 Build 0)  -->
<!DOCTYPE svg PUBLIC "-//W3C//DTD SVG 1.1//EN" "http://www.w3.org/Graphics/SVG/1.1/DTD/svg11.dtd">
<svg version="1.1" id="Layer_1" xmlns="http://www.w3.org/2000/svg" xmlns:xlink="http://www.w3.org/1999/xlink" x="0px" y="0px"
	 width="200px" height="343px" viewBox="590 0 200 343" enable-background="new 590 0 200 343" xml:space="preserve">
<path fill="#ECECEC" d="M603.458,10.008h174c1.657,0,3,1.343,3,3v147.676c0,1.656-1.343,3-3,3h-174c-1.657,0-3-1.344-3-3V13.008
	C600.458,11.351,601.801,10.008,603.458,10.008z"/>
<path fill="#FFFFFF" d="M610.458,20h160v20h-160V20z"/>
<g>
	<path fill="#3672C8" d="M770.458,61.923c0,1.699-1.806,3.077-4.036,3.077H614.494c-2.23,0-4.036-1.378-4.036-3.077V48.077
		c0-1.699,1.806-3.077,4.036-3.077h151.928c2.23,0,4.036,1.378,4.036,3.077V61.923z"/>
	<g>
		<rect x="678.35" y="53" fill="#FFFFFF" fill-opacity="0.5" width="39.891" height="4"/>
		<g opacity="0.5">
			<g>
				<path fill="#FFFFFF" d="M673.284,59.049l-0.008-0.006l-0.003,0.003l-1.74-1.618h-0.001l-0.016-0.016
					c-0.13-0.129-0.323-0.161-0.518-0.122c1.438-1.832,1.333-4.479-0.355-6.166c-1.822-1.823-4.778-1.823-6.602,0
					c-1.823,1.822-1.823,4.778,0,6.602c1.728,1.728,4.46,1.797,6.294,0.251c-0.028,0.183,0.01,0.361,0.133,0.484l0.017,0.019
					l0.001-0.001l1.74,1.619l0.003-0.005l0.006,0.006c0.233,0.233,0.671,0.175,0.947-0.102S673.518,59.283,673.284,59.049z
					 M664.667,57.082c-1.471-1.471-1.471-3.862,0-5.333s3.863-1.471,5.333,0c1.471,1.471,1.471,3.862,0,5.333
					S666.138,58.553,664.667,57.082z"/>
			</g>
		</g>
	</g>
</g>
<g>
	<g>
		<path fill="#FFFFFF" d="M611.416,94H770V75H611.416V94z"/>
	</g>
	<g>
		<g>
			<path fill="#C6C6C6" d="M756.29,86.521l3.87-4.041h-7.182L756.29,86.521z"/>
		</g>
		<path fill="#C6C6C6" d="M616.916,86.5h43v-4h-43V86.5z"/>
	</g>
</g>
<g>
	<g>
		<path fill="#FFFFFF" d="M611.416,118H770V99H611.416V118z"/>
	</g>
	<g>
		<g>
			<path fill="#C6C6C6" d="M756.29,110.521l3.87-4.041h-7.182L756.29,110.521z"/>
		</g>
		<path fill="#C6C6C6" d="M616.916,110.5h43v-4h-43V110.5z"/>
	</g>
</g>
<g>
	<g>
		<path fill="#FFFFFF" d="M611.416,142H770v-19H611.416V142z"/>
	</g>
	<g>
		<g>
			<path fill="#C6C6C6" d="M756.29,134.521l3.87-4.041h-7.182L756.29,134.521z"/>
		</g>
		<path fill="#C6C6C6" d="M616.916,134.5h43v-4h-43V134.5z"/>
	</g>
</g>
<g>
	<g>
		<path fill="#C6C6C6" d="M673.459,184h-63v7h63V184z M770,194H610.459v4H770V194z M610.459,201v4H750v-4H610.459z M610.459,212
			h38.447v-4h-38.447V212z"/>
	</g>
</g>
<g>
	<g>
		<path fill="#C6C6C6" d="M673.459,184h-63v7h63V184z M770,194H610.459v4H770V194z M610.459,201v4H750v-4H610.459z M610.459,212
			h38.447v-4h-38.447V212z"/>
	</g>
</g>
<g>
	<g>
		<path fill="#C6C6C6" d="M673.459,232h-63v7h63V232z M770,242H610.459v4H770V242z M610.459,249v4H750v-4H610.459z M610.459,260
			h38.447v-4h-38.447V260z"/>
	</g>
</g>
<g>
	<g>
		<path fill="#C6C6C6" d="M673.459,280h-63v7h63V280z M770,290H610.459v4H770V290z M610.459,297v4H750v-4H610.459z M610.459,308
			h38.447v-4h-38.447V308z"/>
	</g>
</g>
</svg>
