<?xml version="1.0" encoding="utf-8"?>
<!-- Generator: Adobe Illustrator 15.1.0, SVG Export Plug-In . SVG Version: 6.00 Build 0)  -->
<!DOCTYPE svg PUBLIC "-//W3C//DTD SVG 1.1//EN" "http://www.w3.org/Graphics/SVG/1.1/DTD/svg11.dtd">
<svg version="1.1" id="Layer_1" xmlns="http://www.w3.org/2000/svg" xmlns:xlink="http://www.w3.org/1999/xlink" x="0px" y="0px"
	 width="17.204px" height="17.104px" viewBox="0 0 17.204 17.104" enable-background="new 0 0 17.204 17.104" xml:space="preserve">
<path fill-rule="evenodd" clip-rule="evenodd" fill="#FFFFFF" d="M8.575,17.132c-4.723,0-8.552-3.828-8.552-8.553
	c0-4.723,3.829-8.552,8.552-8.552s8.553,3.829,8.553,8.552C17.128,13.304,13.298,17.132,8.575,17.132z M8.581,2.144
	c-3.558,0-6.442,2.884-6.442,6.442c0,3.558,2.884,6.441,6.442,6.441s6.441-2.884,6.441-6.441C15.022,5.027,12.138,2.144,8.581,2.144
	z M9.332,11.144c-0.688,0-1.274-0.414-1.538-1.004l-0.029,0.021L5.14,4.369l5.346,3.806l-0.041,0.031
	c0.348,0.309,0.576,0.747,0.576,1.249C11.021,10.388,10.265,11.144,9.332,11.144z"/>
</svg>
