<?xml version="1.0" encoding="utf-8"?>
<!-- Generator: Adobe Illustrator 15.1.0, SVG Export Plug-In . SVG Version: 6.00 Build 0)  -->
<!DOCTYPE svg PUBLIC "-//W3C//DTD SVG 1.1//EN" "http://www.w3.org/Graphics/SVG/1.1/DTD/svg11.dtd">
<svg version="1.1" id="Layer_1" xmlns="http://www.w3.org/2000/svg" xmlns:xlink="http://www.w3.org/1999/xlink" x="0px" y="0px"
	 width="32px" height="32px" viewBox="0 0 32 32" enable-background="new 0 0 32 32" xml:space="preserve">
<g>
	<path fill="#FFFFFF" d="M16,31C7.729,31,1,24.271,1,16C1,7.729,7.729,1,16,1c8.271,0,15,6.729,15,15C31,24.271,24.271,31,16,31z"/>
	<path fill="#424242" d="M16,2c7.72,0,14,6.28,14,14s-6.28,14-14,14S2,23.72,2,16S8.28,2,16,2 M16,0C7.164,0,0,7.163,0,16
		s7.164,16,16,16s16-7.163,16-16S24.836,0,16,0L16,0z"/>
</g>
<path fill="#414141" d="M21.156,19.785c-2.061-0.904-2.551-1.218-2.551-1.218l-0.019-2.082c0,0,0.769-0.624,1.009-2.583
	c0.485,0.145,0.992-0.759,1.02-1.235c0.025-0.46-0.065-1.738-0.655-1.61c0.121-0.959,0.206-1.821,0.163-2.278
	c-0.153-1.676-1.716-3.438-4.12-3.438c-2.409,0-3.974,1.763-4.122,3.438c-0.045,0.457,0.038,1.318,0.16,2.278
	c-0.591-0.128-0.682,1.15-0.656,1.61c0.029,0.476,0.534,1.38,1.02,1.235c0.241,1.959,1.011,2.583,1.011,2.583l-0.019,2.082
	c0,0-0.49,0.313-2.551,1.218c-2.062,0.907-4.146,1.541-4.767,2.557c-0.555,0.912-0.386,5.294-0.386,5.294S10.104,31.852,16,32.001
	c5.897,0.149,10.308-4.365,10.308-4.365s0.171-4.382-0.385-5.294C25.301,21.326,23.217,20.692,21.156,19.785z"/>
</svg>
