<?xml version="1.0" encoding="utf-8"?>
<!-- Generator: Adobe Illustrator 16.0.4, SVG Export Plug-In . SVG Version: 6.00 Build 0)  -->
<!DOCTYPE svg PUBLIC "-//W3C//DTD SVG 1.1//EN" "http://www.w3.org/Graphics/SVG/1.1/DTD/svg11.dtd">
<svg version="1.1" xmlns="http://www.w3.org/2000/svg" xmlns:xlink="http://www.w3.org/1999/xlink" x="0px" y="0px"
	 width="32.001px" height="35.253px" viewBox="0 0 32.001 35.253" enable-background="new 0 0 32.001 35.253" xml:space="preserve">
<g id="Layer_3" display="none">
	<circle display="inline" fill="#FFFFFF" cx="16.001" cy="19.249" r="15.583"/>
	<g display="inline">
		<path fill="#424242" d="M16,5.249c7.72,0,14,6.28,14,14c0,7.72-6.28,14-14,14s-14-6.279-14-14C2,11.529,8.281,5.249,16,5.249
			 M16,3.249c-8.836,0-16,7.163-16,16c0,8.837,7.164,16,16,16s16-7.162,16-16C32,10.412,24.836,3.249,16,3.249L16,3.249z"/>
	</g>
	<path display="inline" fill="#414141" d="M21.157,23.033c-2.061-0.904-2.551-1.217-2.551-1.217l-0.019-2.083
		c0,0,0.769-0.624,1.009-2.583c0.485,0.145,0.992-0.76,1.02-1.236c0.025-0.46-0.065-1.738-0.655-1.61
		c0.121-0.959,0.206-1.821,0.163-2.278c-0.153-1.676-1.716-3.438-4.12-3.438c-2.409,0-3.974,1.763-4.122,3.438
		c-0.045,0.457,0.038,1.318,0.16,2.278c-0.591-0.128-0.682,1.15-0.656,1.61c0.029,0.477,0.534,1.381,1.02,1.236
		c0.241,1.959,1.011,2.583,1.011,2.583l-0.019,2.083c0,0-0.49,0.312-2.551,1.217c-2.062,0.908-4.146,1.541-4.767,2.557
		c-0.555,0.912-0.386,5.295-0.386,5.295S10.104,35.1,16,35.25c5.897,0.148,10.308-4.365,10.308-4.365s0.171-4.383-0.385-5.295
		C25.301,24.574,23.217,23.941,21.157,23.033z"/>
	<polygon display="inline" fill="#414141" stroke="#FFFFFF" stroke-width="2" stroke-miterlimit="10" points="15.751,6.787 
		8.72,1.1 22.783,1.1 	"/>
	<polygon display="inline" fill="#414141" points="15.751,7.203 8.72,1.516 22.783,1.516 	"/>
</g>
<g id="Layer_1" display="none">
	<circle display="inline" fill="#FFFFFF" cx="16" cy="19.248" r="15.583"/>
	<g display="inline">
		<path fill="#424242" d="M16,5.248c7.72,0,14,6.28,14,14s-6.28,14-14,14s-14-6.28-14-14S8.28,5.248,16,5.248 M16,3.248
			c-8.836,0-16,7.163-16,16s7.164,16,16,16s16-7.163,16-16S24.836,3.248,16,3.248L16,3.248z"/>
	</g>
	<path display="inline" fill="#414141" d="M21.156,23.033c-2.061-0.904-2.551-1.218-2.551-1.218l-0.019-2.082
		c0,0,0.769-0.624,1.009-2.583c0.485,0.145,0.992-0.759,1.02-1.235c0.025-0.46-0.065-1.738-0.655-1.61
		c0.121-0.959,0.206-1.821,0.163-2.278c-0.153-1.676-1.716-3.438-4.12-3.438c-2.409,0-3.974,1.763-4.122,3.438
		c-0.045,0.457,0.038,1.318,0.16,2.278c-0.591-0.128-0.682,1.15-0.656,1.61c0.029,0.476,0.534,1.38,1.02,1.235
		c0.241,1.959,1.011,2.583,1.011,2.583l-0.019,2.082c0,0-0.49,0.313-2.551,1.218C8.783,23.94,6.7,24.574,6.079,25.59
		c-0.555,0.912-0.386,5.294-0.386,5.294S10.104,35.1,16,35.249c5.897,0.149,10.308-4.365,10.308-4.365s0.171-4.382-0.385-5.294
		C25.301,24.574,23.217,23.94,21.156,23.033z"/>
</g>
<g id="Layer_2">
	<g>
		<path fill="#424242" d="M16.001,5.249c7.72,0,14,6.28,14,14c0,7.72-6.28,14-14,14s-14-6.279-14-14
			C2.001,11.529,8.282,5.249,16.001,5.249 M16.001,3.249c-8.836,0-16,7.163-16,16c0,8.837,7.164,16,16,16c8.836,0,16-7.162,16-16
			C32.001,10.412,24.837,3.249,16.001,3.249L16.001,3.249z"/>
	</g>
	<path fill="#414141" d="M21.158,23.127c-2.061-0.866-2.551-1.166-2.551-1.166l-0.02-1.994c0,0,0.77-0.598,1.01-2.474
		c0.484,0.139,0.992-0.728,1.02-1.184c0.025-0.44-0.066-1.665-0.656-1.542c0.121-0.919,0.207-1.745,0.164-2.182
		c-0.154-1.605-1.717-3.293-4.121-3.293c-2.408,0-3.973,1.688-4.121,3.293c-0.045,0.437,0.037,1.263,0.16,2.182
		c-0.591-0.123-0.682,1.102-0.657,1.542c0.029,0.457,0.534,1.323,1.02,1.184c0.24,1.876,1.01,2.474,1.01,2.474l-0.018,1.994
		c0,0-0.49,0.3-2.551,1.166c-2.062,0.87-4.146,1.476-4.767,2.448c-0.555,0.874-0.386,5.072-0.386,5.072s4.411,4.037,10.308,4.181
		c5.896,0.143,10.307-4.181,10.307-4.181s0.172-4.198-0.385-5.072C25.302,24.603,23.218,23.997,21.158,23.127z"/>
</g>
<g id="Layer_4" display="none">
	<g display="inline">
		<path fill="#424242" d="M16.001,5.249c7.72,0,14,6.28,14,14c0,7.719-6.28,14-14,14s-14-6.28-14-14
			C2.001,11.529,8.282,5.249,16.001,5.249 M16.001,3.249c-8.836,0-16,7.163-16,16c0,8.837,7.164,16,16,16c8.836,0,16-7.162,16-16
			C32.001,10.412,24.837,3.249,16.001,3.249L16.001,3.249z"/>
	</g>
	<path display="inline" fill="#414141" d="M21.158,23.127c-2.061-0.866-2.551-1.166-2.551-1.166l-0.02-1.994
		c0,0,0.77-0.598,1.01-2.474c0.484,0.139,0.992-0.728,1.02-1.184c0.025-0.44-0.066-1.665-0.656-1.542
		c0.121-0.919,0.207-1.745,0.164-2.182c-0.154-1.605-1.717-3.293-4.121-3.293c-2.408,0-3.973,1.688-4.121,3.293
		c-0.045,0.437,0.037,1.263,0.16,2.182c-0.591-0.123-0.682,1.102-0.657,1.542c0.029,0.457,0.534,1.323,1.02,1.184
		c0.24,1.876,1.01,2.474,1.01,2.474l-0.018,1.994c0,0-0.49,0.3-2.551,1.166c-2.062,0.87-4.146,1.476-4.767,2.448
		c-0.555,0.874-0.386,5.072-0.386,5.072s4.411,4.037,10.308,4.181c5.896,0.143,10.307-4.181,10.307-4.181s0.172-4.198-0.385-5.072
		C25.302,24.603,23.218,23.997,21.158,23.127z"/>
	<polygon display="inline" fill="#414141" stroke="#FFFFFF" stroke-width="2" stroke-miterlimit="10" points="16.001,7.787 
		8.971,2.1 23.033,2.1 	"/>
	<polygon display="inline" fill="#414141" points="16,7.544 7.095,0.342 24.906,0.342 	"/>
</g>
<g id="Layer_5" display="none">
	<circle display="inline" fill="#00A651" cx="16.002" cy="19.249" r="15.584"/>
	<g display="inline">
		<path fill="#424242" d="M16.001,5.249c7.72,0,14,6.28,14,14c0,7.719-6.28,14-14,14s-14-6.28-14-14
			C2.001,11.529,8.282,5.249,16.001,5.249 M16.001,3.249c-8.836,0-16,7.163-16,16c0,8.837,7.164,16,16,16c8.836,0,16-7.162,16-16
			C32.001,10.412,24.837,3.249,16.001,3.249L16.001,3.249z"/>
	</g>
	<path display="inline" fill="#414141" d="M21.158,23.127c-2.061-0.866-2.551-1.166-2.551-1.166l-0.02-1.994
		c0,0,0.77-0.598,1.01-2.474c0.484,0.139,0.992-0.728,1.02-1.184c0.025-0.44-0.066-1.665-0.656-1.542
		c0.121-0.919,0.207-1.745,0.164-2.182c-0.154-1.605-1.717-3.293-4.121-3.293c-2.408,0-3.973,1.688-4.121,3.293
		c-0.045,0.437,0.037,1.263,0.16,2.182c-0.591-0.123-0.682,1.102-0.657,1.542c0.029,0.457,0.534,1.323,1.02,1.184
		c0.24,1.876,1.01,2.474,1.01,2.474l-0.018,1.994c0,0-0.49,0.3-2.551,1.166c-2.062,0.87-4.146,1.476-4.767,2.448
		c-0.555,0.874-0.386,5.072-0.386,5.072s4.411,4.037,10.308,4.181c5.896,0.143,10.307-4.181,10.307-4.181s0.172-4.198-0.385-5.072
		C25.302,24.603,23.218,23.997,21.158,23.127z"/>
	<polygon display="inline" fill="#414141" stroke="#FFFFFF" stroke-width="2" stroke-miterlimit="10" points="16.001,7.787 
		8.971,2.1 23.033,2.1 	"/>
	<polygon display="inline" fill="#414141" points="16,7.544 7.095,0.342 24.906,0.342 	"/>
</g>
</svg>
