<?xml version="1.0" encoding="UTF-8" standalone="no"?>
<svg width="42px" height="63px" viewBox="0 0 42 63" version="1.1" xmlns="http://www.w3.org/2000/svg" xmlns:xlink="http://www.w3.org/1999/xlink">
    <!-- Generator: Sketch 43.1 (39012) - http://www.bohemiancoding.com/sketch -->
    <title>Artboard</title>
    <desc>Created with Sketch.</desc>
    <defs></defs>
    <g id="Page-1" stroke="none" stroke-width="1" fill="none" fill-rule="evenodd">
        <g id="Artboard">
            <g id="Group" transform="translate(1.000000, 1.000000)">
                <path d="M34.1403035,5.85937687 C30.2342121,1.95280599 25.5207243,0 19.9998402,0 C14.4789561,0 9.7654683,1.95328544 5.85937687,5.85937687 C1.95328544,9.7654683 0,14.4789561 0,19.9998402 C0,22.8386726 0.429588551,25.1692863 1.28876565,26.992161 L15.5466946,57.2268525 C15.9374476,58.0860296 16.5429948,58.7630151 17.3633363,59.2573296 C18.1836779,59.7521236 19.0625125,60 20.0003196,60 C20.9376473,60 21.8169614,59.7521236 22.6373029,59.2573296 C23.4576445,58.7630151 24.0756574,58.0860296 24.4923008,57.2268525 L38.7104353,26.992161 C39.5700918,25.1692863 39.9996804,22.8386726 39.9996804,19.9998402 C40.0001598,14.4789561 38.0468744,9.76594776 34.1403035,5.85937687 L34.1403035,5.85937687 Z M27.0698321,27.0703116 C25.1170261,29.0231176 22.760522,29.9997603 19.9998402,29.9997603 C17.2391584,29.9997603 14.8826542,29.0231176 12.9293688,27.0703116 C10.9760834,25.1170261 9.99944064,22.760522 9.99944064,19.9998402 C9.99944064,17.2396379 10.9760834,14.8826542 12.9293688,12.9298483 C14.8826542,10.9765628 17.2396379,9.99992009 19.9998402,9.99992009 C22.760522,9.99992009 25.1170261,10.9765628 27.0698321,12.9298483 C29.0231176,14.8826542 29.9997603,17.2396379 29.9997603,19.9998402 C29.9997603,22.7600425 29.0231176,25.1165467 27.0698321,27.0703116 L27.0698321,27.0703116 Z" id="Shape" fill="#00AAF3"></path>
                <circle id="Oval" fill="#FFFFFF" cx="20" cy="20" r="10"></circle>
            </g>
        </g>
    </g>
</svg>