<svg id="Capa_1" data-name="Capa 1" xmlns="http://www.w3.org/2000/svg" viewBox="0 0 59.93 64.53"><defs><style>.cls-1{fill:#fff;}</style></defs><title>NewHire_icon</title><path class="cls-1" d="M31.37,23.09a8.89,8.89,0,0,0,6.52-2.7,8.88,8.88,0,0,0,2.7-6.52,8.9,8.9,0,0,0-2.7-6.52,9.22,9.22,0,0,0-13,0,8.9,8.9,0,0,0-2.7,6.52,8.9,8.9,0,0,0,2.7,6.52A8.89,8.89,0,0,0,31.37,23.09Z" transform="translate(-17.55 -4.65)"/><path class="cls-1" d="M42.34,37.47a13.82,13.82,0,0,0,19.55,0,13.32,13.32,0,0,0,4.05-9.77,13.32,13.32,0,0,0-4.05-9.77,13.82,13.82,0,0,0-19.55,0,13.32,13.32,0,0,0-4.05,9.77A13.31,13.31,0,0,0,42.34,37.47Z" transform="translate(-17.55 -4.65)"/><path class="cls-1" d="M76.84,52.21a30.55,30.55,0,0,0-1-3.91,18.32,18.32,0,0,0-1.55-3.51,12.72,12.72,0,0,0-2.23-2.92A9.25,9.25,0,0,0,69,39.95a10.78,10.78,0,0,0-4-.72,4.31,4.31,0,0,0-1.55.78l-2.62,1.73A16.15,16.15,0,0,1,57,43.46,16.7,16.7,0,0,1,43.4,41.73L40.77,40a4.27,4.27,0,0,0-1.55-.78,10.79,10.79,0,0,0-4,.72,9.26,9.26,0,0,0-3.08,1.92,12.65,12.65,0,0,0-2.23,2.92,18.51,18.51,0,0,0-1.55,3.51,30,30,0,0,0-1,3.91,36.94,36.94,0,0,0-.5,3.92c-.08,1.22-.13,2.46-.13,3.73a9,9,0,0,0,2.63,6.82,9.72,9.72,0,0,0,7,2.5H67.86a9.71,9.71,0,0,0,7-2.5,9,9,0,0,0,2.63-6.82c0-1.27,0-2.51-.13-3.73A37.84,37.84,0,0,0,76.84,52.21Z" transform="translate(-17.55 -4.65)"/><path class="cls-1" d="M38.9,36.92A15.85,15.85,0,0,1,36,27.69a18,18,0,0,1,.18-2.38,14.44,14.44,0,0,1-4.79.83,12.6,12.6,0,0,1-4.29-.78,23.41,23.41,0,0,1-3.51-1.53A6.84,6.84,0,0,0,22,23.09q-4.47,0-4.47,12.71a4.92,4.92,0,0,0,2,4.27,8.25,8.25,0,0,0,5,1.46h4.83A12.4,12.4,0,0,1,38.9,36.92Z" transform="translate(-17.55 -4.65)"/></svg>