<?xml version="1.0" encoding="utf-8"?>
<!-- Generator: Adobe Illustrator 15.1.0, SVG Export Plug-In . SVG Version: 6.00 Build 0)  -->
<!DOCTYPE svg PUBLIC "-//W3C//DTD SVG 1.1//EN" "http://www.w3.org/Graphics/SVG/1.1/DTD/svg11.dtd">
<svg version="1.1" id="Layer_1" xmlns="http://www.w3.org/2000/svg" xmlns:xlink="http://www.w3.org/1999/xlink" x="0px" y="0px"
	 width="19.285px" height="16.854px" viewBox="0 0 19.285 16.854" enable-background="new 0 0 19.285 16.854" xml:space="preserve">
<g>
	<path fill-rule="evenodd" clip-rule="evenodd" fill="#FFFFFF" d="M19.222,2.945l-3.769,2.757L14.88,5.293l-0.235-0.169
		l-0.235-0.168l-1.412,1.026l-1.814,1.32L9.961,8.191L7.85,9.727C7.612,9.9,7.252,9.841,7.081,9.605
		C6.994,9.487,6.959,9.341,6.982,9.196s0.101-0.272,0.22-0.359l2.103-1.528l1.224-0.89l1.815-1.321l1.404-1.021L13.659,3.8
		L13.57,3.524l-0.229-0.709l3.769-2.757l-0.179,2.331L19.222,2.945z M7.526,10.382c0.234,0,0.458-0.072,0.647-0.21l1.969-1.432
		c0.034,0.169,0.053,0.345,0.053,0.524c0,1.438-1.166,2.604-2.604,2.604s-2.604-1.165-2.604-2.604c0-1.438,1.166-2.604,2.604-2.604
		c0.447,0,0.868,0.113,1.236,0.312l-1.95,1.418C6.641,8.565,6.484,8.82,6.438,9.111c-0.046,0.29,0.024,0.581,0.197,0.818
		C6.842,10.213,7.175,10.382,7.526,10.382z M7.557,3.842c-3.053,0-5.529,2.475-5.529,5.529c0,3.053,2.476,5.528,5.529,5.528
		s5.528-2.476,5.528-5.528c0-0.883-0.226-1.707-0.594-2.447l1.527-1.526c0.684,1.134,1.084,2.459,1.084,3.88
		c0,4.162-3.373,7.535-7.535,7.535c-4.161,0-7.535-3.373-7.535-7.535c0-4.161,3.374-7.535,7.535-7.535
		c1.833,0,3.512,0.656,4.818,1.743l-1.498,1.498C9.958,4.277,8.813,3.842,7.557,3.842z"/>
</g>
</svg>
