<?xml version="1.0" encoding="utf-8"?>
<!-- Generator: Adobe Illustrator 16.0.4, SVG Export Plug-In . SVG Version: 6.00 Build 0)  -->
<!DOCTYPE svg PUBLIC "-//W3C//DTD SVG 1.1//EN" "http://www.w3.org/Graphics/SVG/1.1/DTD/svg11.dtd">
<svg version="1.1" id="Layer_1" xmlns="http://www.w3.org/2000/svg" xmlns:xlink="http://www.w3.org/1999/xlink" x="0px" y="0px"
	 width="202px" height="202px" viewBox="0 0 202 202" enable-background="new 0 0 202 202" xml:space="preserve">
<g>
	<g>
		<path fill="#414141" d="M134.001,73.804l-88.602,88.682H1.098v-44.34L89.7,29.46L134.001,73.804z M49.444,139.146l-25.027-25.051
			l-9.688,9.699V135.2H28.36v13.644h11.396L49.444,139.146z M93.106,47.579c-0.636,0-1.279,0.218-1.807,0.747l-57.723,57.776
			c-0.528,0.527-0.746,1.173-0.746,1.811c0,1.383,0.963,2.348,2.345,2.348c0.636,0,1.281-0.217,1.808-0.747l57.725-57.776
			c0.525-0.529,0.744-1.174,0.744-1.811C95.452,48.542,94.488,47.579,93.106,47.579z M158.491,49.289l-17.674,17.692L96.517,22.639
			l17.676-17.591C116.643,2.492,120.16,1,123.776,1c3.618,0,7.136,1.492,9.689,4.047l25.025,24.949
			c2.454,2.557,3.945,6.077,3.945,9.698C162.437,43.314,160.945,46.834,158.491,49.289z"/>
	</g>
	<path fill="#414141" d="M84.279,201H10.446C5.229,201,1,196.767,1,191.545c0-5.221,4.229-9.454,9.446-9.454h69.742l29.717-31.702
		c1.786-1.905,4.28-2.986,6.89-2.986h74.761c5.217,0,9.444,4.233,9.444,9.456c0,5.222-4.228,9.455-9.444,9.455h-70.671
		l-29.716,31.702C89.383,199.921,86.888,201,84.279,201z"/>
</g>
</svg>
