<?xml version="1.0" encoding="UTF-8" standalone="no"?>

<svg viewbox="0 0 181 108" xmlns="http://www.w3.org/2000/svg">
	<path d="M115.8 50.6c4.1 1.3 7.9 3.5 11.3 6.5 5.8 5 8.7 11.6 8.7 19.7v17.1c0 4-1.4 7.3-4.1 10-2.7 2.7-6 4.1-10 4.1H59.8c-3.9 0-7.2-1.4-10-4-2.7-2.8-4-6.1-4-10V76.7c0-8 2.9-14.6 8.7-19.7 3.4-3 7.1-5.2 11.2-6.5-4.3-5.6-6.4-12-6.4-19.1A31 31 0 0 1 75 4.2a31 31 0 0 1 31.5 0 31 31 0 0 1 15.8 27.3c0 7.1-2.2 13.5-6.5 19.1zM90.8 9c-6.2 0-11.5 2.2-16 6.6a21.7 21.7 0 0 0-6.5 15.9c0 6.2 2.2 11.5 6.6 15.9 4.4 4.4 9.7 6.6 15.9 6.6 6.2 0 11.5-2.2 15.9-6.6 4.4-4.4 6.6-9.7 6.6-15.9 0-6.2-2.2-11.5-6.6-15.9a21.7 21.7 0 0 0-16-6.6zm36 85V76.7c0-4-1.2-7.6-3.7-10.8a17.7 17.7 0 0 0-9.3-6.7L108 58c-5 3.4-10.7 5.1-17.1 5.1-6.4 0-12.1-1.7-17.2-5l-5.9 1.3a17.7 17.7 0 0 0-9.3 6.7 17.8 17.8 0 0 0-3.6 10.8v17.1c0 1.4.5 2.5 1.5 3.6 1 1 2.2 1.5 3.5 1.5h62c1.2 0 2.4-.5 3.4-1.5s1.6-2.2 1.6-3.6zm-85.5 0c0 1.6.3 3.3.8 5H13.7c-3.5 0-6.6-1.3-9.1-3.8a12.5 12.5 0 0 1-3.8-9.1V73.4c0-5 1.5-9.6 4.5-13.5 2.6-3.6 6-6 10.1-7.6A26.1 26.1 0 0 1 9.8 36a26 26 0 0 1 7.9-19.1 26 26 0 0 1 19-7.9c4 0 7.8.8 11.3 2.5 3.6 1.7 6.7 4 9.3 6.8A36 36 0 0 0 59 48.7c-2.8 1.3-5.3 3-7.6 5a29 29 0 0 0-6.5 7.9 26 26 0 0 1-21.7-2.2l-3.6 1c-3 .8-5.4 2.4-7.1 4.9a13.5 13.5 0 0 0-2.7 8.1v12.7a3.8 3.8 0 0 0 4 3.9h27.5v4zm-4.5-76c-5 0-9.3 1.7-12.8 5.2A17.4 17.4 0 0 0 18.8 36c0 5 1.7 9.3 5.2 12.8S31.7 54 36.8 54c5 0 9.3-1.7 12.8-5.2 3.4-3.5 5.2-7.7 5.2-12.8 0-5-1.8-9.3-5.2-12.8A17.4 17.4 0 0 0 36.8 18zm129.4 34.3c4 1.5 7.5 4 10 7.6 3 4 4.6 8.4 4.6 13.5v12.7c0 3.5-1.3 6.6-3.8 9.1a12.5 12.5 0 0 1-9.2 3.8h-28.4c.6-1.7.9-3.4.9-5v-4h27.5a3.8 3.8 0 0 0 4-4V73.5c0-3-1-5.7-2.7-8.1-1.8-2.5-4.2-4-7.2-4.8l-3.6-1.2a26 26 0 0 1-21.7 2.3 29 29 0 0 0-6.4-7.9c-2.3-2-4.8-3.7-7.6-5a35.8 35.8 0 0 0 1.6-30.4c2.7-2.8 5.8-5 9.3-6.8A26 26 0 0 1 144.8 9a26 26 0 0 1 19.1 7.9 26 26 0 0 1 7.9 19.1c0 6-1.9 11.4-5.6 16.3zM144.8 54c5 0 9.3-1.7 12.8-5.2 3.4-3.5 5.2-7.7 5.2-12.8 0-5-1.8-9.3-5.2-12.8a17.4 17.4 0 0 0-12.8-5.2c-5 0-9.3 1.7-12.8 5.2a17.4 17.4 0 0 0-5.2 12.8c0 5 1.7 9.3 5.2 12.8s7.7 5.2 12.8 5.2z" fill="#CCC" fill-rule="evenodd" />
</svg>