<?xml version="1.0" encoding="UTF-8" standalone="no"?>
<svg width="24px" height="32px" viewBox="0 0 24 32" version="1.1" xmlns="http://www.w3.org/2000/svg" xmlns:xlink="http://www.w3.org/1999/xlink">
    <!-- Generator: Sketch 44.1 (41455) - http://www.bohemiancoding.com/sketch -->
    <title>Shape</title>
    <desc>Created with Sketch.</desc>
    <defs></defs>
    <g id="Page-1" stroke="none" stroke-width="1" fill="none" fill-rule="evenodd">
        <path d="M20.5687208,17.7957552 C19.6144601,16.5985105 18.5362462,16.0002237 17.3329604,16.0002237 L17.3329604,6.66681581 C17.9648085,6.66681581 18.512082,6.43591381 18.9734385,5.97410981 C19.4354663,5.51230581 19.666592,4.96525601 19.666592,4.33340791 C19.666592,3.70133605 19.4354663,3.15451 18.9734385,2.692706 C18.512082,2.230902 17.9648085,2 17.3329604,2 L5.66659207,2 C5.03452022,2 4.48769416,2.230902 4.02589016,2.692706 C3.56408616,3.15451 3.33318416,3.70133605 3.33318416,4.33340791 C3.33318416,4.96547976 3.56408616,5.51230581 4.02589016,5.97410981 C4.48769416,6.43591381 5.03474396,6.66681581 5.66659207,6.66681581 L5.66659207,15.9999999 C4.46353,15.9999999 3.38509236,16.5985105 2.43105542,17.7955315 C1.47701847,18.9927763 1,20.3383621 1,21.8334078 C1,22.1493319 1.115451,22.4229687 1.346353,22.6536469 C1.57747874,22.8843252 1.85089177,22.9999999 2.16681582,22.9999999 L9.53129192,22.9999999 L10.9167039,31.8411749 C10.9773381,32.1694047 11.1717701,32.3331841 11.5,32.3331841 L11.5185706,32.3331841 C11.6637793,32.3331841 11.7888512,32.2817233 11.8922201,32.1785782 C11.9951416,32.0752092 12.0591318,31.9503611 12.083296,31.8047049 L13.0127213,22.9999999 L20.8329604,22.9999999 C21.1488844,22.9999999 21.4227449,22.8843252 21.6531994,22.6536469 C21.8843252,22.4229687 21.9999999,22.1493319 21.9999999,21.8334078 C22.0002237,20.3385859 21.5227577,18.9927763 20.5687208,17.7957552 L20.5687208,17.7957552 Z M9.7498881,15.4169276 C9.7498881,15.5869718 9.69529499,15.7265869 9.58588503,15.8362206 C9.47647507,15.9456306 9.33663616,16.0002237 9.16659206,16.0002237 C8.99654795,16.0002237 8.85670904,15.9456306 8.74729908,15.8362206 C8.63788912,15.7268107 8.58329601,15.5869718 8.58329601,15.4169276 L8.58329601,7.25033559 C8.58329601,7.08029149 8.63788912,6.94022884 8.74729908,6.83104262 C8.85670904,6.7218564 8.99654795,6.66703955 9.16659206,6.66703955 C9.33663616,6.66703955 9.47647507,6.72163266 9.58588503,6.83104262 C9.69529499,6.94045258 9.7498881,7.08029149 9.7498881,7.25033559 L9.7498881,15.4169276 L9.7498881,15.4169276 Z" id="Shape" fill="#D0011B" transform="translate(11.500000, 17.166592) rotate(21.000000) translate(-11.500000, -17.166592) "></path>
    </g>
</svg>