<svg id="Layer_1" data-name="Layer 1" xmlns="http://www.w3.org/2000/svg" viewBox="0 0 41 61"><defs><style>.cls-1{fill:#00aaf3;stroke:#fff;}.cls-2{fill:#fff;}</style></defs><title>pin_svg_outline</title><g id="Page-1"><path id="Shape" class="cls-1" d="M35.14,6.86A19.27,19.27,0,0,0,21,1,19.27,19.27,0,0,0,6.86,6.86,19.27,19.27,0,0,0,1,21a16.44,16.44,0,0,0,1.29,7L16.55,58.23a4.5,4.5,0,0,0,1.82,2,5.05,5.05,0,0,0,5.27,0,4.74,4.74,0,0,0,1.86-2L39.71,28A16.43,16.43,0,0,0,41,21,19.27,19.27,0,0,0,35.14,6.86ZM28.07,28.07A9.63,9.63,0,0,1,21,31a9.64,9.64,0,0,1-7.07-2.93A9.63,9.63,0,0,1,11,21a9.63,9.63,0,0,1,2.93-7.07A9.64,9.64,0,0,1,21,11a9.63,9.63,0,0,1,7.07,2.93A9.63,9.63,0,0,1,31,21a9.64,9.64,0,0,1-2.93,7.07Z" transform="translate(-0.5 -0.5)"/><circle class="cls-2" cx="20.51" cy="20.28" r="10.78"/></g></svg>