<?xml version="1.0" encoding="utf-8"?>
<!-- Generator: Adobe Illustrator 16.0.4, SVG Export Plug-In . SVG Version: 6.00 Build 0)  -->
<!DOCTYPE svg PUBLIC "-//W3C//DTD SVG 1.1//EN" "http://www.w3.org/Graphics/SVG/1.1/DTD/svg11.dtd">
<svg version="1.1" id="Layer_1" xmlns="http://www.w3.org/2000/svg" xmlns:xlink="http://www.w3.org/1999/xlink" x="0px" y="0px"
	 width="144px" height="144px" viewBox="0 0 144 144" enable-background="new 0 0 144 144" xml:space="preserve">
<g>
	<path fill="#408BC5" d="M128.596,129.639l-21.923-21.499c3.862-5.576,5.915-12.251,5.915-19.021
		c0-18.536-15.017-33.553-33.555-33.553c-18.543,0-33.557,15.018-33.557,33.553c0,18.542,15.014,33.56,33.557,33.56
		c6.769,0,13.438-2.05,19.014-5.912l21.923,21.453c1.094,1.145,2.667,1.812,4.287,1.812c3.339,0,6.102-2.764,6.102-6.101
		C130.358,132.312,129.692,130.737,128.596,129.639z M79.033,110.473c-11.778,0-21.357-9.58-21.357-21.354
		c0-11.766,9.579-21.35,21.357-21.35c11.772,0,21.352,9.584,21.352,21.35C100.385,100.893,90.806,110.473,79.033,110.473z"/>
	<path fill="#408BC5" d="M87.166,130.345c-0.023,0-0.044,0.006-0.068,0.006l0,0H23.372v-27.491c0.006-0.11,0.031-0.208,0.031-0.319
		V87.272c0-0.105-0.024-0.209-0.031-0.314V52.55h31.604c4.031,0,7.296-3.271,7.296-7.296V13.649h58.349v83.139h0.008
		c0.003,2.689,2.176,4.865,4.866,4.865c2.687,0,4.864-2.176,4.864-4.867c0-0.034-0.011-0.064-0.011-0.099V11.219
		c0-4.03-3.267-7.296-7.296-7.296H54.976c-4.023,0-9.647,2.354-12.458,5.167L18.814,32.793c-2.814,2.814-5.168,8.434-5.168,12.461
		v41.98c0,0.015-0.004,0.025-0.004,0.038v15.268c0,0.013,0.004,0.028,0.004,0.041v30.2c0,4.027,3.265,7.291,7.296,7.291h66.156
		v-0.003c0.024,0,0.045,0.008,0.068,0.008c2.688,0,4.863-2.176,4.863-4.867C92.029,132.521,89.854,130.345,87.166,130.345z
		 M25.651,39.708l23.78-23.78c0.531-0.531,1.823-1.217,3.115-1.672v28.568H23.978C24.434,41.531,25.12,40.24,25.651,39.708z"/>
</g>
</svg>
