<?xml version="1.0" encoding="utf-8"?>
<!-- Generator: Adobe Illustrator 15.1.0, SVG Export Plug-In . SVG Version: 6.00 Build 0)  -->
<!DOCTYPE svg PUBLIC "-//W3C//DTD SVG 1.1//EN" "http://www.w3.org/Graphics/SVG/1.1/DTD/svg11.dtd">
<svg version="1.1" id="Layer_1" xmlns="http://www.w3.org/2000/svg" xmlns:xlink="http://www.w3.org/1999/xlink" x="0px" y="0px"
	 width="18.071px" height="13.197px" viewBox="0 0 18.071 13.197" enable-background="new 0 0 18.071 13.197" xml:space="preserve">
<g>
	<g>
		<path fill-rule="evenodd" clip-rule="evenodd" fill="#FFFFFF" d="M14.055,10.094c0,0,0.021-1.008,0.003-1.111
			c0.136-0.049,1.035-0.673,1.035-1.187c0-0.595-0.025-2.303-0.025-2.303s0.177-2.135-1.851-2.135c-1.362,0-0.677,0.025-0.677,0.025
			c-1.808,0-1.464,2.18-1.464,2.18s0,1.455,0,2.198s0.981,1.202,0.981,1.202v1.105l0.98,1.12l-0.014,1.976h5.04v-1.336
			L14.055,10.094z M8.023,7.087c0.134-0.103,1.07-0.957,1.07-1.489c0-0.615-0.025-3.608-0.025-3.608S8.482,0.032,7.073,0.032
			c-1.409,0-2.026,0.026-2.026,0.026c-1.435,0-2.009,1.932-2.009,1.932s0,2.84,0,3.608s1.024,1.519,1.024,1.519v2.009l-4.028,2.014
			L0.06,13.19h12.015v-2.011L8.023,9.114C8.023,9.114,8.048,7.111,8.023,7.087z"/>
	</g>
</g>
</svg>
