<?xml version="1.0" encoding="utf-8"?>
<!-- Generator: Adobe Illustrator 15.1.0, SVG Export Plug-In . SVG Version: 6.00 Build 0)  -->
<!DOCTYPE svg PUBLIC "-//W3C//DTD SVG 1.1//EN" "http://www.w3.org/Graphics/SVG/1.1/DTD/svg11.dtd">
<svg version="1.1" id="Layer_1" xmlns="http://www.w3.org/2000/svg" xmlns:xlink="http://www.w3.org/1999/xlink" x="0px" y="0px"
	 width="189.99px" height="562px" viewBox="0 0 189.99 562" enable-background="new 0 0 189.99 562" xml:space="preserve">
<g>
	<g>
		<path fill="none" stroke="#71BC44" stroke-width="1.5" stroke-linecap="round" stroke-miterlimit="10" d="M21.384,193.806
			c0-0.834,0.005-1.668,0.017-2.5"/>
		
			<path fill="none" stroke="#71BC44" stroke-width="1.5" stroke-linecap="round" stroke-miterlimit="10" stroke-dasharray="4.988,4.988" d="
			M21.536,186.319c2.421-59.611,33.64-113.007,82.203-150.459"/>
		<path fill="none" stroke="#71BC44" stroke-width="1.5" stroke-linecap="round" stroke-miterlimit="10" d="M105.725,34.346
			c0.664-0.501,1.332-1,2.003-1.496"/>
	</g>
</g>
<g>
	<g>
		<path fill="none" stroke="#71BC44" stroke-width="1.5" stroke-linecap="round" stroke-miterlimit="10" d="M168.77,532.27
			c-0.104,0.826-0.213,1.652-0.326,2.479"/>
		
			<path fill="none" stroke="#71BC44" stroke-width="1.5" stroke-linecap="round" stroke-miterlimit="10" stroke-dasharray="4.9805,4.9805" d="
			M167.719,539.675c-0.898,5.705-2.003,11.413-3.312,17.112"/>
		<path fill="none" stroke="#71BC44" stroke-width="1.5" stroke-linecap="round" stroke-miterlimit="10" d="M163.836,559.215
			c-0.194,0.81-0.393,1.619-0.596,2.428"/>
	</g>
</g>
<g>
	<g>
		<path fill="none" stroke="#71BC44" stroke-width="1.5" stroke-linecap="round" stroke-miterlimit="10" d="M114.231,360.544
			c0.59,0.59,1.176,1.184,1.756,1.779"/>
		
			<path fill="none" stroke="#71BC44" stroke-width="1.5" stroke-linecap="round" stroke-miterlimit="10" stroke-dasharray="5.0995,5.0995" d="
			M119.493,366.027c29.908,32.479,46.254,73.701,49.53,117.594"/>
		<path fill="none" stroke="#71BC44" stroke-width="1.5" stroke-linecap="round" stroke-miterlimit="10" d="M169.198,486.166
			c0.053,0.831,0.101,1.663,0.144,2.496"/>
	</g>
</g>
<g>
	<g>
		<path fill="none" stroke="#71BC44" stroke-width="1.5" stroke-linecap="round" stroke-miterlimit="10" d="M108.251,355.579
			c-0.67-0.492-1.337-0.99-2-1.491"/>
		
			<path fill="none" stroke="#71BC44" stroke-width="1.5" stroke-linecap="round" stroke-miterlimit="10" stroke-dasharray="4.8709,4.8709" d="
			M102.401,351.104c-40.737-32.395-69.383-81.531-80.736-138.017"/>
		<path fill="none" stroke="#71BC44" stroke-width="1.5" stroke-linecap="round" stroke-miterlimit="10" d="M21.195,210.69
			c-0.157-0.818-0.31-1.637-0.459-2.458"/>
	</g>
</g>
<g>
	<g>
		<path fill="none" stroke="#71BC44" stroke-width="1.5" stroke-linecap="round" stroke-miterlimit="10" d="M136.604,0.356
			c-0.501,0.665-1.006,1.328-1.515,1.988"/>
		
			<path fill="none" stroke="#71BC44" stroke-width="1.5" stroke-linecap="round" stroke-miterlimit="10" stroke-dasharray="5.4224,5.4224" d="
			M131.735,6.605c-3.94,4.894-8.093,9.672-12.448,14.322"/>
		<path fill="none" stroke="#71BC44" stroke-width="1.5" stroke-linecap="round" stroke-miterlimit="10" d="M117.423,22.896
			c-0.575,0.602-1.154,1.201-1.736,1.798"/>
	</g>
</g>
<circle fill-rule="evenodd" clip-rule="evenodd" fill="#71BC44" cx="99.378" cy="39.556" r="19"/>
<g>
	<path fill="#FFFFFF" d="M98.431,47.556V34.348h-4.783V32.58c0.624,0,1.23-0.047,1.82-0.143c0.588-0.095,1.122-0.273,1.599-0.533
		c0.477-0.26,0.88-0.615,1.209-1.066s0.554-1.023,0.676-1.716h1.69v18.434H98.431z"/>
</g>
<circle fill-rule="evenodd" clip-rule="evenodd" fill="#71BC44" cx="18.996" cy="193.554" r="19"/>
<g>
	<path fill="#FFFFFF" d="M13.198,188.048c0.242-0.797,0.619-1.486,1.131-2.067c0.511-0.581,1.148-1.035,1.911-1.365
		c0.762-0.329,1.629-0.494,2.6-0.494c0.797,0,1.547,0.117,2.249,0.351c0.702,0.234,1.313,0.572,1.833,1.014
		c0.52,0.442,0.932,0.992,1.235,1.651c0.303,0.659,0.455,1.421,0.455,2.288c0,0.815-0.126,1.534-0.377,2.158
		s-0.585,1.183-1.001,1.677s-0.893,0.94-1.43,1.339c-0.538,0.399-1.092,0.78-1.664,1.144c-0.572,0.347-1.144,0.689-1.716,1.027
		c-0.572,0.338-1.096,0.698-1.573,1.079c-0.477,0.381-0.884,0.793-1.222,1.235c-0.338,0.442-0.559,0.949-0.663,1.521h9.464v1.95
		H12.392c0.086-1.092,0.282-2.023,0.585-2.795c0.303-0.771,0.689-1.443,1.157-2.015c0.468-0.572,0.996-1.075,1.586-1.508
		c0.589-0.433,1.205-0.841,1.846-1.222c0.78-0.485,1.465-0.932,2.054-1.339c0.589-0.407,1.079-0.819,1.469-1.235
		c0.39-0.416,0.685-0.867,0.884-1.352c0.199-0.485,0.299-1.049,0.299-1.69c0-0.503-0.095-0.958-0.286-1.365
		s-0.446-0.758-0.767-1.053c-0.321-0.294-0.698-0.52-1.131-0.676s-0.893-0.234-1.378-0.234c-0.642,0-1.192,0.134-1.651,0.403
		c-0.459,0.269-0.836,0.62-1.131,1.053c-0.295,0.433-0.507,0.923-0.637,1.469s-0.187,1.097-0.169,1.651h-2.21
		C12.86,189.711,12.955,188.845,13.198,188.048z"/>
</g>
<circle fill-rule="evenodd" clip-rule="evenodd" fill="#71BC44" cx="98.993" cy="343.805" r="19"/>
<g>
	<path fill="#FFFFFF" d="M97.668,342.803c0.087,0,0.173,0,0.261,0h0.467c0.469,0,0.914-0.064,1.34-0.195
		c0.424-0.13,0.797-0.32,1.117-0.571c0.321-0.251,0.576-0.567,0.768-0.949c0.19-0.381,0.286-0.814,0.286-1.3
		c0-0.988-0.312-1.729-0.937-2.224c-0.623-0.493-1.404-0.74-2.34-0.74c-0.59,0-1.105,0.108-1.547,0.324
		c-0.441,0.218-0.806,0.508-1.092,0.871c-0.286,0.364-0.499,0.789-0.637,1.274s-0.208,0.997-0.208,1.534h-2.21
		c0.035-0.884,0.178-1.69,0.429-2.418c0.251-0.729,0.611-1.353,1.079-1.872c0.468-0.521,1.053-0.928,1.755-1.223
		c0.702-0.294,1.512-0.441,2.431-0.441c0.797,0,1.538,0.1,2.223,0.299c0.686,0.199,1.279,0.498,1.781,0.897
		c0.503,0.398,0.897,0.909,1.184,1.533c0.285,0.624,0.429,1.361,0.429,2.21c0,0.832-0.243,1.569-0.728,2.21
		c-0.486,0.642-1.092,1.127-1.82,1.456v0.053c1.127,0.242,1.963,0.771,2.509,1.586s0.819,1.776,0.819,2.886
		c0,0.919-0.17,1.729-0.508,2.431s-0.793,1.287-1.364,1.755c-0.572,0.469-1.244,0.819-2.015,1.054
		c-0.771,0.233-1.591,0.351-2.457,0.351c-0.937,0-1.786-0.13-2.549-0.39s-1.413-0.646-1.95-1.157
		c-0.538-0.511-0.949-1.14-1.235-1.885s-0.42-1.595-0.403-2.548h2.21c0.034,1.195,0.381,2.171,1.04,2.925
		c0.658,0.754,1.621,1.131,2.887,1.131c0.537,0,1.048-0.082,1.533-0.247c0.485-0.164,0.91-0.398,1.274-0.702
		c0.364-0.303,0.653-0.676,0.871-1.118c0.216-0.441,0.325-0.939,0.325-1.495c0-0.571-0.104-1.078-0.312-1.521
		s-0.485-0.814-0.832-1.118c-0.347-0.303-0.758-0.528-1.234-0.676c-0.478-0.147-0.993-0.221-1.547-0.221
		c-0.469,0-0.91,0.025-1.326,0.077v-1.871C97.521,342.794,97.599,342.803,97.668,342.803z"/>
</g>
<circle fill-rule="evenodd" clip-rule="evenodd" fill="#71BC44" cx="170.995" cy="510.805" r="19"/>
<g>
	<path fill="#FFFFFF" d="M176.156,514.041v1.95h-2.496v4.315h-2.08v-4.315h-8.086v-2.133l8.397-11.985h1.769v12.168H176.156z
		 M171.58,505.019h-0.052l-6.137,9.022h6.188V505.019z"/>
</g>
</svg>
