<svg width="123" height="132" viewBox="0 0 123 132" xmlns="http://www.w3.org/2000/svg"><title>Group 2</title><g fill="#00AAF3" fill-rule="evenodd"><path d="M28 38c5.25 0 9.72-1.85 13.43-5.57C45.13 28.73 47 24.23 47 19c0-5.24-1.86-9.72-5.57-13.43C37.73 1.87 33.25 0 28 0s-9.72 1.86-13.43 5.57C10.87 9.27 9 13.77 9 19c0 5.25 1.86 9.72 5.57 13.43C18.27 36.13 22.75 38 28 38zM70.5 76c7.87 0 14.6-2.78 20.15-8.35C96.22 62.08 99 55.37 99 47.5c0-7.87-2.78-14.58-8.35-20.15C85.1 21.78 78.37 19 70.5 19c-7.87 0-14.58 2.78-20.15 8.35C44.78 32.92 42 39.63 42 47.5c0 7.87 2.78 14.58 8.35 20.15C55.92 73.22 62.63 76 70.5 76z"/><path d="M121.7 97.43c-.5-2.86-1.16-5.5-1.95-7.95-.8-2.45-1.85-4.83-3.17-7.15-1.33-2.32-2.86-4.3-4.6-5.94-1.7-1.65-3.8-2.96-6.3-3.93-2.5-.98-5.23-1.47-8.24-1.47-.5 0-1.55.53-3.17 1.58-1.63 1.05-3.42 2.22-5.4 3.52-1.96 1.3-4.6 2.46-7.9 3.5-3.3 1.06-6.62 1.6-9.97 1.6-3.35 0-6.67-.54-9.97-1.6-3.3-1.04-5.93-2.2-7.9-3.5-1.97-1.3-3.77-2.47-5.4-3.52C46.1 71.53 45.05 71 44.56 71c-3 0-5.75.5-8.24 1.47-2.5.97-4.6 2.28-6.3 3.92-1.74 1.63-3.26 3.6-4.6 5.93-1.32 2.32-2.38 4.7-3.17 7.15-.8 2.44-1.44 5.1-1.96 7.95-.52 2.86-.87 5.52-1.04 8-.17 2.46-.26 5-.26 7.58 0 5.88 1.8 10.5 5.4 13.9 3.6 3.4 8.36 5.1 14.32 5.1h64.56c5.96 0 10.73-1.7 14.33-5.1 3.6-3.4 5.4-8.02 5.4-13.9 0-2.58-.1-5.1-.26-7.58-.17-2.47-.52-5.13-1.03-8zM38 47.5c0-1.44.1-3.07.36-4.9-3.26 1.14-6.55 1.7-9.87 1.7-2.93 0-5.87-.52-8.84-1.6-2.96-1.05-5.38-2.1-7.23-3.14C10.57 38.52 9.5 38 9.2 38 3.07 38 0 46.73 0 64.2 0 68.06 1.4 71 4.15 73c2.78 2 6.2 3 10.24 3h9.94C29.44 69.9 36 66.75 44 66.5c-4-5.8-6-12.12-6-19z"/></g></svg>