<?xml version="1.0" encoding="utf-8"?>
<!-- Generator: Adobe Illustrator 15.1.0, SVG Export Plug-In . SVG Version: 6.00 Build 0)  -->
<!DOCTYPE svg PUBLIC "-//W3C//DTD SVG 1.1//EN" "http://www.w3.org/Graphics/SVG/1.1/DTD/svg11.dtd">
<svg version="1.1" id="Layer_1" xmlns="http://www.w3.org/2000/svg" xmlns:xlink="http://www.w3.org/1999/xlink" x="0px" y="0px"
	 width="17px" height="17px" viewBox="0 0 17 17" enable-background="new 0 0 17 17" xml:space="preserve">
<g>
	<path fill-rule="evenodd" clip-rule="evenodd" fill="#FFFFFF" d="M15.884,10.068h-1.505c-0.14,0.52-0.345,1.012-0.607,1.467
		l1.063,1.064c0.414,0.414,0.414,1.085,0,1.499l-0.749,0.749c-0.414,0.414-1.086,0.414-1.499,0l-1.065-1.063
		c-0.455,0.263-0.947,0.468-1.467,0.607v1.505c0,0.586-0.475,1.061-1.06,1.061h-1.06c-0.586,0-1.061-0.475-1.061-1.061v-1.502
		c-0.52-0.14-1.014-0.347-1.469-0.61l-1.062,1.063c-0.414,0.414-1.085,0.414-1.499,0l-0.75-0.749c-0.414-0.414-0.414-1.085,0-1.499
		l1.063-1.062c-0.263-0.455-0.47-0.949-0.61-1.469H1.047c-0.585,0-1.06-0.475-1.06-1.061v-1.06c0-0.585,0.474-1.06,1.06-1.06h1.505
		c0.14-0.52,0.345-1.012,0.607-1.467L2.096,4.357c-0.414-0.414-0.414-1.085,0-1.499l0.75-0.75c0.414-0.414,1.085-0.414,1.499,0
		l1.064,1.063c0.455-0.263,0.947-0.468,1.467-0.607V1.06C6.875,0.475,7.35,0,7.936,0h1.06c0.585,0,1.06,0.475,1.06,1.06v1.502
		c0.521,0.14,1.014,0.347,1.47,0.61l1.062-1.063c0.413-0.414,1.085-0.414,1.499,0l0.749,0.749c0.413,0.414,0.413,1.085,0,1.499
		l-1.063,1.062c0.263,0.456,0.471,0.949,0.609,1.47h1.503c0.585,0,1.06,0.475,1.06,1.06v1.06
		C16.943,9.594,16.469,10.068,15.884,10.068z M8.465,4.769c-2.049,0-3.709,1.661-3.709,3.709s1.66,3.709,3.709,3.709
		s3.709-1.66,3.709-3.709S10.514,4.769,8.465,4.769z"/>
</g>
</svg>
