<?xml version="1.0" encoding="utf-8"?>
<!-- Generator: Adobe Illustrator 15.1.0, SVG Export Plug-In . SVG Version: 6.00 Build 0)  -->
<!DOCTYPE svg PUBLIC "-//W3C//DTD SVG 1.1//EN" "http://www.w3.org/Graphics/SVG/1.1/DTD/svg11.dtd">
<svg version="1.1" id="Layer_1" xmlns="http://www.w3.org/2000/svg" xmlns:xlink="http://www.w3.org/1999/xlink" x="0px" y="0px"
                                     width="180px" height="65px" viewBox="0 0 180 65" xml:space="preserve">
	<g transform="scale(0.44)">
		<g>
			<path fill="#FFFFFF" d="M8.854,9.759h10.713v50.898c0,13.838,7.702,25.223,22.548,25.223c14.845,0,22.544-11.384,22.544-25.223
		V9.759h10.715v54.022c0,18.305-13.838,32.144-33.485,32.144c-19.197,0-33.035-13.838-33.035-32.144V9.759z"/>
			<path fill="#FFFFFF" d="M95.232,9.759v80.237v4.592H85.187V9.759H95.232z"/>
			<path fill="#FFFFFF" d="M110.31,22.373h10.043v14.064h9.266v8.817h-9.266v42.465h6.15l-0.009,6.869H110.31V45.254h-8.036v-8.817
		h8.036V22.373z"/>
			<path fill="#FFFFFF" d="M237.329,58.981c0-10.045-5.805-14.51-12.728-14.51c-8.371,0-14.621,5.246-14.621,14.958v35.159h-10.043
		V58.981c0-10.045-5.806-14.51-12.725-14.51c-8.371,0-14.621,5.246-14.621,14.958v28.299l6.137,0.002v6.857h-16.184V36.437h10.047
		v6.917h0.222c2.678-5.915,9.934-8.258,16.073-8.258c5.917,0,12.389,1.563,17.188,10.045c3.571-7.367,11.275-10.045,18.976-10.045
		c12.5,0,22.322,7.478,22.322,22.77V87.73h6.137l-0.004,6.857h-16.176V58.981z"/>
			<path fill="#FFFFFF" d="M297.821,55.634c0-9.599-9.599-11.721-17.411-11.721c-5.468,0-10.604,1.341-16.072,4.019l-4.352-8.373
		c8.816-3.681,15.736-4.463,20.982-4.463c13.953,0,26.9,5.915,26.9,19.755V87.73h6.137v6.857h-15.515v-6.252
		c-5.135,5.356-10.823,7.589-18.529,7.589c-14.172,0-25.332-7.921-25.332-20.869c0-10.605,9.038-19.979,25.226-19.979
		c6.137,0,12.61,1.785,17.966,6.584V55.634z M281.749,63.892c-12.276,0-16.407,5.915-16.407,11.608
		c0,5.693,4.131,11.607,16.407,11.607c9.978,0,15.954-5.891,15.946-5.631c0,0,0.008-4.914,0.008-5.979c0-1.062,0-5.389,0-5.389
		S291.746,63.892,281.749,63.892z"/>
			<path fill="#FFFFFF" d="M320.815,22.373h10.043v14.064h9.267v8.817h-9.267V87.73H337v6.857h-16.185V45.254h-8.038v-8.817h8.038
		V22.373z"/>
			<path fill="#FFFFFF" d="M397.159,83.313c-7.812,8.706-16.073,12.612-26.231,12.612c-20.645,0-31.697-14.954-31.697-30.468
		c0-16.521,11.829-30.361,30.025-30.361c17.971,0,30.47,13.729,30.47,34.265h-49.779c1.565,9.934,9.6,17.19,20.871,17.19
		c7.143,0,13.506-3.35,18.64-9.377L397.159,83.313z M388.343,61.101c-1.006-9.597-8.818-16.629-19.198-16.629
		c-12.277,0-18.192,8.706-19.199,16.629H388.343z"/>
		</g>
		<path fill="#FFFFFF" d="M151.772,26.111c0,3.736-3.03,6.766-6.766,6.766c-3.738,0-6.762-3.03-6.762-6.766
	c0-3.736,3.024-6.766,6.762-6.766C148.742,19.345,151.772,22.375,151.772,26.111z M150.171,87.73V68.26l4.742-0.029V45.313v-4.511
	c0-2.455-1.882-4.44-4.34-4.44h-10.927c-2.456,0-4.445,1.987-4.445,4.44l0,0v4.355v23.094l4.459,0.008v26.328l10.497-0.014
	L150.171,87.73z"/>
		<g>
			<path fill="#FFFFFF" d="M97.941,120.043c-0.436-3.023-2.185-4.875-4.907-4.875c-3.633,0-4.608,2.387-4.608,4.137
		c0,1.914,1.211,3.129,3.734,4.068l3.228,1.211c4.071,1.51,5.951,3.9,5.951,6.994c0,4.135-3.296,7.127-8.205,7.127
		c-4.639,0-7.935-2.453-8.339-7.566h3.229c0.268,2.791,1.682,4.742,5.28,4.742c2.791,0,4.808-1.781,4.808-4.035
		c0-1.982-1.649-3.26-3.968-4.17l-3.262-1.279c-3.801-1.477-5.683-3.695-5.683-6.992c0-4.402,3.665-7.062,7.868-7.062
		c4.237,0,7.534,2.525,7.905,7.701H97.941z"/>
			<path fill="#FFFFFF" d="M128.049,112.342c8.673,0,13.55,6.859,13.55,13.184c0,6.32-4.876,13.18-13.55,13.18
		c-8.675,0-13.552-6.859-13.552-13.18C114.498,119.201,119.374,112.342,128.049,112.342z M128.049,135.68
		c5.213,0,10.12-4.102,10.12-10.154s-4.907-10.154-10.12-10.154s-10.122,4.102-10.122,10.154S122.836,135.68,128.049,135.68z"/>
			<path fill="#FFFFFF" d="M155.94,112.746h13.215v3.027h-9.99v8.104h9.99v3.025h-9.99v11.4h-3.225V112.746z"/>
			<path fill="#FFFFFF" d="M188.031,115.773h-6.392v-3.027h16.006v3.027h-6.39v22.529h-3.225V115.773z"/>
			<path fill="#FFFFFF" d="M238.682,112.746h3.429l-7.87,25.557h-2.488l-6.152-20.24h-0.067l-6.152,20.24h-2.491l-7.865-25.557h3.428
		l5.718,19.404h0.067l5.815-19.404h3.028l5.816,19.473h0.067L238.682,112.746z"/>
			<path fill="#FFFFFF" d="M269.329,132.352h-11.902l-2.321,5.951h-3.529l10.388-25.557h2.827l10.389,25.557h-3.53L269.329,132.352z
		 M263.377,116.982l-4.844,12.543h9.686L263.377,116.982z"/>
			<path fill="#FFFFFF" d="M291.704,127.408v10.895h-3.229v-25.557h7.365c4.909,0,8.574,2.826,8.574,7.736
		c0,4.572-3.597,7.396-7.771,7.633l9.955,10.188h-4.538L291.704,127.408z M291.704,125.426c0.437,0.031,0.91,0.031,2.823,0.031
		c4.943,0,6.657-2.152,6.657-4.945c0-2.99-2.051-4.939-5.413-4.939h-4.067V125.426z"/>
			<path fill="#FFFFFF" d="M319.755,112.746h13.219v3.027h-9.985v8.104h9.985v3.025h-9.985v8.373h9.985v3.027h-13.219V112.746z"/>
		</g>
	</g>
</svg>