<?xml version="1.0" encoding="utf-8"?>
<!-- Generator: Adobe Illustrator 15.1.0, SVG Export Plug-In . SVG Version: 6.00 Build 0)  -->
<!DOCTYPE svg PUBLIC "-//W3C//DTD SVG 1.1//EN" "http://www.w3.org/Graphics/SVG/1.1/DTD/svg11.dtd">
<svg version="1.1" id="Layer_1" xmlns="http://www.w3.org/2000/svg" xmlns:xlink="http://www.w3.org/1999/xlink" x="0px" y="0px"
	 width="200px" height="57.365px" viewBox="0 0 200 57.365" enable-background="new 0 0 200 57.365" xml:space="preserve">
<path fill-rule="evenodd" clip-rule="evenodd" fill="#4B9510" d="M39.343,56.868c-15.566,0-28.186-12.619-28.186-28.186
	S23.776,0.497,39.343,0.497c15.567,0,28.187,12.619,28.187,28.186S54.91,56.868,39.343,56.868z M43.939,15.892h-17v17h5v-12h12
	V15.892z M51.939,23.892h-17v17h17V23.892z M48.939,37.891h-11v-11h11V37.891z"/>
<g>
	<path fill="#4B9510" d="M81.7,24.578c-0.222-0.426-0.627-0.639-1.215-0.639c-0.324,0-0.591,0.087-0.801,0.261
		c-0.21,0.174-0.375,0.456-0.495,0.846s-0.204,0.9-0.252,1.53s-0.072,1.401-0.072,2.313c0,0.973,0.033,1.759,0.1,2.358
		c0.065,0.601,0.168,1.065,0.306,1.395c0.138,0.331,0.312,0.553,0.522,0.666c0.209,0.114,0.452,0.172,0.729,0.172
		c0.228,0,0.441-0.039,0.639-0.117c0.198-0.078,0.369-0.234,0.514-0.469c0.144-0.233,0.258-0.563,0.342-0.989
		s0.126-0.987,0.126-1.684h2.592c0,0.696-0.054,1.356-0.162,1.98c-0.107,0.624-0.309,1.17-0.603,1.638s-0.708,0.834-1.242,1.098
		c-0.534,0.265-1.228,0.396-2.079,0.396c-0.972,0-1.746-0.156-2.322-0.468c-0.575-0.312-1.017-0.762-1.322-1.351
		c-0.307-0.588-0.504-1.289-0.595-2.105c-0.09-0.816-0.135-1.716-0.135-2.7c0-0.972,0.045-1.869,0.135-2.691
		c0.091-0.822,0.288-1.527,0.595-2.115c0.306-0.588,0.747-1.047,1.322-1.377c0.576-0.33,1.351-0.495,2.322-0.495
		c0.924,0,1.653,0.15,2.188,0.45c0.533,0.3,0.933,0.681,1.196,1.143c0.264,0.462,0.43,0.96,0.495,1.494
		c0.066,0.534,0.1,1.035,0.1,1.503h-2.593C82.033,25.685,81.923,25.004,81.7,24.578z"/>
	<path fill="#4B9510" d="M86.074,26.018c0.091-0.822,0.288-1.527,0.595-2.115c0.306-0.588,0.747-1.047,1.322-1.377
		c0.576-0.33,1.351-0.495,2.322-0.495s1.746,0.165,2.322,0.495s1.017,0.789,1.323,1.377c0.306,0.588,0.504,1.293,0.594,2.115
		c0.09,0.822,0.135,1.719,0.135,2.691c0,0.984-0.045,1.884-0.135,2.7s-0.288,1.518-0.594,2.105
		c-0.307,0.589-0.747,1.038-1.323,1.351c-0.576,0.312-1.351,0.468-2.322,0.468s-1.746-0.156-2.322-0.468
		c-0.575-0.312-1.017-0.762-1.322-1.351c-0.307-0.588-0.504-1.289-0.595-2.105c-0.09-0.816-0.135-1.716-0.135-2.7
		C85.939,27.737,85.984,26.84,86.074,26.018z M88.595,30.915c0.042,0.606,0.126,1.098,0.252,1.476s0.306,0.654,0.54,0.828
		c0.233,0.175,0.543,0.262,0.927,0.262s0.693-0.087,0.927-0.262c0.234-0.174,0.414-0.45,0.54-0.828s0.21-0.869,0.252-1.476
		c0.042-0.605,0.063-1.341,0.063-2.205s-0.021-1.596-0.063-2.196c-0.042-0.6-0.126-1.092-0.252-1.476
		c-0.126-0.384-0.306-0.663-0.54-0.837c-0.233-0.174-0.543-0.261-0.927-0.261s-0.693,0.087-0.927,0.261
		c-0.234,0.174-0.414,0.453-0.54,0.837c-0.126,0.384-0.21,0.876-0.252,1.476c-0.042,0.6-0.063,1.332-0.063,2.196
		S88.553,30.309,88.595,30.915z"/>
	<path fill="#4B9510" d="M100.123,22.283l1.836,9.073h0.036l1.854-9.073h3.834v12.852h-2.376v-10.26h-0.036l-2.286,10.26h-2.016
		l-2.286-10.26h-0.036v10.26h-2.376V22.283H100.123z"/>
	<path fill="#4B9510" d="M114.073,22.283c0.66,0,1.216,0.111,1.665,0.333c0.45,0.222,0.813,0.513,1.09,0.873
		c0.275,0.36,0.474,0.771,0.594,1.233c0.12,0.462,0.18,0.933,0.18,1.413c0,0.66-0.099,1.236-0.297,1.728
		c-0.198,0.492-0.475,0.894-0.828,1.207c-0.354,0.312-0.783,0.546-1.287,0.702c-0.504,0.155-1.062,0.233-1.674,0.233h-1.386v5.13
		h-2.592V22.283H114.073z M113.281,28.097c0.517,0,0.934-0.156,1.251-0.468c0.318-0.312,0.478-0.798,0.478-1.458
		c0-0.648-0.138-1.14-0.414-1.476s-0.738-0.504-1.386-0.504h-1.08v3.906H113.281z"/>
	<path fill="#4B9510" d="M123.92,22.283l3.401,12.852h-2.7l-0.594-2.718h-3.42l-0.594,2.718h-2.7l3.402-12.852H123.92z
		 M123.577,30.293l-1.241-5.778H122.3l-1.242,5.778H123.577z"/>
	<path fill="#4B9510" d="M134.341,31.085h0.036v-8.802h2.376v12.852h-2.951l-3.169-9h-0.035v9h-2.376V22.283h2.987L134.341,31.085z"
		/>
	<path fill="#4B9510" d="M142.315,27.251h0.036l1.8-4.968h2.808l-3.33,7.794v5.058h-2.592v-5.058l-3.33-7.794h2.916L142.315,27.251z
		"/>
	<path fill="#4B9510" d="M152.233,22.283h2.592v10.728h4.59v2.124h-7.182V22.283z"/>
	<path fill="#4B9510" d="M160.432,26.018c0.091-0.822,0.288-1.527,0.595-2.115c0.306-0.588,0.747-1.047,1.322-1.377
		c0.576-0.33,1.351-0.495,2.322-0.495s1.746,0.165,2.322,0.495s1.017,0.789,1.323,1.377c0.306,0.588,0.504,1.293,0.594,2.115
		c0.09,0.822,0.135,1.719,0.135,2.691c0,0.984-0.045,1.884-0.135,2.7s-0.288,1.518-0.594,2.105
		c-0.307,0.589-0.747,1.038-1.323,1.351c-0.576,0.312-1.351,0.468-2.322,0.468s-1.746-0.156-2.322-0.468
		c-0.575-0.312-1.017-0.762-1.322-1.351c-0.307-0.588-0.504-1.289-0.595-2.105c-0.09-0.816-0.135-1.716-0.135-2.7
		C160.297,27.737,160.342,26.84,160.432,26.018z M162.952,30.915c0.042,0.606,0.126,1.098,0.252,1.476s0.306,0.654,0.54,0.828
		c0.233,0.175,0.543,0.262,0.927,0.262s0.693-0.087,0.927-0.262c0.234-0.174,0.414-0.45,0.54-0.828s0.21-0.869,0.252-1.476
		c0.042-0.605,0.063-1.341,0.063-2.205s-0.021-1.596-0.063-2.196c-0.042-0.6-0.126-1.092-0.252-1.476
		c-0.126-0.384-0.306-0.663-0.54-0.837c-0.233-0.174-0.543-0.261-0.927-0.261s-0.693,0.087-0.927,0.261
		c-0.234,0.174-0.414,0.453-0.54,0.837c-0.126,0.384-0.21,0.876-0.252,1.476c-0.042,0.6-0.063,1.332-0.063,2.196
		S162.91,30.309,162.952,30.915z"/>
	<path fill="#4B9510" d="M176.2,25.361c-0.055-0.252-0.142-0.483-0.262-0.693s-0.272-0.384-0.459-0.522
		c-0.186-0.138-0.411-0.207-0.675-0.207c-0.624,0-1.074,0.348-1.35,1.044c-0.276,0.696-0.414,1.848-0.414,3.456
		c0,0.768,0.023,1.464,0.072,2.088c0.047,0.624,0.135,1.154,0.261,1.593s0.306,0.773,0.54,1.008
		c0.233,0.234,0.537,0.352,0.909,0.352c0.155,0,0.326-0.042,0.513-0.127c0.186-0.083,0.36-0.209,0.521-0.378
		c0.162-0.168,0.298-0.381,0.405-0.639c0.108-0.258,0.162-0.561,0.162-0.909v-1.313h-1.71v-1.909h4.194v6.93h-1.908v-1.188h-0.036
		c-0.312,0.504-0.688,0.861-1.125,1.07c-0.438,0.21-0.963,0.315-1.575,0.315c-0.792,0-1.438-0.138-1.935-0.414
		c-0.498-0.275-0.889-0.702-1.17-1.278c-0.282-0.575-0.472-1.286-0.567-2.133c-0.096-0.846-0.144-1.827-0.144-2.943
		c0-1.08,0.068-2.028,0.207-2.844c0.138-0.816,0.374-1.497,0.711-2.043c0.335-0.546,0.779-0.957,1.332-1.233
		c0.552-0.276,1.241-0.414,2.069-0.414c1.416,0,2.437,0.351,3.061,1.053c0.623,0.702,0.936,1.707,0.936,3.015h-2.483
		C176.281,25.859,176.254,25.613,176.2,25.361z"/>
	<path fill="#4B9510" d="M180.447,26.018c0.091-0.822,0.288-1.527,0.595-2.115c0.306-0.588,0.747-1.047,1.322-1.377
		c0.576-0.33,1.351-0.495,2.322-0.495s1.746,0.165,2.322,0.495s1.017,0.789,1.323,1.377c0.306,0.588,0.504,1.293,0.594,2.115
		c0.09,0.822,0.135,1.719,0.135,2.691c0,0.984-0.045,1.884-0.135,2.7s-0.288,1.518-0.594,2.105
		c-0.307,0.589-0.747,1.038-1.323,1.351c-0.576,0.312-1.351,0.468-2.322,0.468s-1.746-0.156-2.322-0.468
		c-0.575-0.312-1.017-0.762-1.322-1.351c-0.307-0.588-0.504-1.289-0.595-2.105c-0.09-0.816-0.135-1.716-0.135-2.7
		C180.312,27.737,180.357,26.84,180.447,26.018z M182.968,30.915c0.042,0.606,0.126,1.098,0.252,1.476s0.306,0.654,0.54,0.828
		c0.233,0.175,0.543,0.262,0.927,0.262s0.693-0.087,0.927-0.262c0.234-0.174,0.414-0.45,0.54-0.828s0.21-0.869,0.252-1.476
		c0.042-0.605,0.063-1.341,0.063-2.205s-0.021-1.596-0.063-2.196c-0.042-0.6-0.126-1.092-0.252-1.476
		c-0.126-0.384-0.306-0.663-0.54-0.837c-0.233-0.174-0.543-0.261-0.927-0.261s-0.693,0.087-0.927,0.261
		c-0.234,0.174-0.414,0.453-0.54,0.837c-0.126,0.384-0.21,0.876-0.252,1.476c-0.042,0.6-0.063,1.332-0.063,2.196
		S182.926,30.309,182.968,30.915z"/>
</g>
</svg>
