<?xml version="1.0" encoding="utf-8"?>
<!-- Generator: Adobe Illustrator 15.1.0, SVG Export Plug-In . SVG Version: 6.00 Build 0)  -->
<!DOCTYPE svg PUBLIC "-//W3C//DTD SVG 1.1//EN" "http://www.w3.org/Graphics/SVG/1.1/DTD/svg11.dtd">
<svg version="1.1" id="Layer_1" xmlns="http://www.w3.org/2000/svg" xmlns:xlink="http://www.w3.org/1999/xlink" x="0px" y="0px"
	 width="75px" height="25px" viewBox="0 0 75 25" enable-background="new 0 0 75 25" xml:space="preserve">
<path fill-rule="evenodd" clip-rule="evenodd" fill="#4B9510" d="M12.472,24.942C5.584,24.942,0,19.358,0,12.47
	C0,5.583,5.584,0,12.472,0c6.889,0,12.471,5.583,12.471,12.47C24.943,19.358,19.36,24.942,12.472,24.942z M14.505,6.812H6.983v7.522
	h2.212v-5.31h5.31V6.812z M18.045,10.351h-7.521v7.522h7.521V10.351z M16.718,16.547H11.85v-4.868h4.868V16.547z"/>
<g>
	<path fill="#4B9510" d="M29.269,6.929h2.174v8.997h3.851v1.784h-6.024V6.929z"/>
	<path fill="#4B9510" d="M36.145,10.062c0.076-0.688,0.243-1.281,0.499-1.773c0.257-0.494,0.628-0.878,1.11-1.155
		c0.483-0.276,1.132-0.416,1.947-0.416c0.814,0,1.466,0.139,1.948,0.416c0.483,0.277,0.852,0.661,1.111,1.155
		c0.255,0.493,0.421,1.085,0.497,1.773c0.075,0.69,0.112,1.442,0.112,2.259c0,0.825-0.037,1.578-0.112,2.265
		c-0.076,0.684-0.242,1.271-0.497,1.765c-0.26,0.494-0.628,0.872-1.111,1.133c-0.482,0.263-1.134,0.393-1.948,0.393
		c-0.815,0-1.464-0.13-1.947-0.393c-0.482-0.261-0.854-0.639-1.11-1.133c-0.256-0.494-0.423-1.081-0.499-1.765
		c-0.075-0.687-0.111-1.439-0.111-2.265C36.033,11.504,36.069,10.751,36.145,10.062z M38.26,14.169
		c0.035,0.509,0.105,0.92,0.211,1.236c0.106,0.318,0.258,0.55,0.453,0.696c0.196,0.145,0.456,0.22,0.777,0.22
		s0.581-0.075,0.776-0.22c0.198-0.146,0.349-0.378,0.454-0.696c0.106-0.316,0.175-0.728,0.212-1.236
		c0.033-0.508,0.054-1.124,0.054-1.849c0-0.726-0.021-1.339-0.054-1.843c-0.037-0.503-0.105-0.916-0.212-1.238
		c-0.105-0.322-0.256-0.556-0.454-0.702c-0.195-0.146-0.455-0.219-0.776-0.219s-0.581,0.073-0.777,0.219
		c-0.195,0.146-0.347,0.38-0.453,0.702c-0.105,0.322-0.176,0.735-0.211,1.238c-0.036,0.504-0.055,1.118-0.055,1.843
		C38.205,13.045,38.224,13.661,38.26,14.169z"/>
	<path fill="#4B9510" d="M49.373,9.511c-0.048-0.211-0.12-0.404-0.222-0.581c-0.099-0.177-0.227-0.322-0.384-0.438
		c-0.155-0.115-0.346-0.173-0.565-0.173c-0.523,0-0.901,0.292-1.132,0.876c-0.232,0.583-0.348,1.55-0.348,2.898
		c0,0.645,0.02,1.229,0.061,1.752c0.039,0.523,0.112,0.968,0.218,1.335c0.106,0.37,0.258,0.649,0.454,0.846
		c0.195,0.196,0.449,0.296,0.762,0.296c0.13,0,0.274-0.038,0.43-0.107c0.157-0.068,0.303-0.176,0.437-0.316
		c0.138-0.141,0.252-0.32,0.342-0.538c0.091-0.213,0.136-0.469,0.136-0.76v-1.102h-1.433v-1.602h3.518v5.814h-1.602v-0.996h-0.031
		c-0.261,0.424-0.576,0.721-0.942,0.896c-0.369,0.176-0.809,0.265-1.323,0.265c-0.663,0-1.203-0.113-1.621-0.348
		c-0.417-0.231-0.746-0.589-0.981-1.072c-0.236-0.481-0.396-1.079-0.476-1.788c-0.082-0.711-0.121-1.533-0.121-2.468
		c0-0.906,0.057-1.701,0.175-2.386c0.113-0.685,0.312-1.255,0.596-1.713c0.28-0.458,0.652-0.802,1.117-1.035
		c0.462-0.231,1.041-0.347,1.735-0.347c1.188,0,2.044,0.294,2.568,0.884c0.521,0.588,0.784,1.431,0.784,2.528H49.44
		C49.44,9.929,49.418,9.723,49.373,9.511z"/>
	<path fill="#4B9510" d="M52.935,10.062c0.077-0.688,0.243-1.281,0.498-1.773c0.257-0.494,0.628-0.878,1.111-1.155
		c0.481-0.276,1.133-0.416,1.945-0.416c0.816,0,1.466,0.139,1.948,0.416c0.484,0.277,0.854,0.661,1.111,1.155
		c0.255,0.493,0.423,1.085,0.499,1.773c0.075,0.69,0.112,1.442,0.112,2.259c0,0.825-0.037,1.578-0.112,2.265
		c-0.076,0.684-0.244,1.271-0.499,1.765c-0.258,0.494-0.627,0.872-1.111,1.133c-0.482,0.263-1.132,0.393-1.948,0.393
		c-0.812,0-1.464-0.13-1.945-0.393c-0.483-0.261-0.854-0.639-1.111-1.133c-0.255-0.494-0.421-1.081-0.498-1.765
		c-0.075-0.687-0.113-1.439-0.113-2.265C52.821,11.504,52.859,10.751,52.935,10.062z M55.049,14.169
		c0.034,0.509,0.106,0.92,0.211,1.236c0.107,0.318,0.258,0.55,0.454,0.696c0.196,0.145,0.454,0.22,0.775,0.22
		c0.323,0,0.583-0.075,0.778-0.22c0.196-0.146,0.348-0.378,0.452-0.696c0.107-0.316,0.178-0.728,0.214-1.236
		c0.034-0.508,0.053-1.124,0.053-1.849c0-0.726-0.019-1.339-0.053-1.843c-0.036-0.503-0.106-0.916-0.214-1.238
		c-0.104-0.322-0.256-0.556-0.452-0.702c-0.195-0.146-0.455-0.219-0.778-0.219c-0.321,0-0.579,0.073-0.775,0.219
		s-0.347,0.38-0.454,0.702c-0.104,0.322-0.177,0.735-0.211,1.238c-0.035,0.504-0.054,1.118-0.054,1.843
		C54.995,13.045,55.014,13.661,55.049,14.169z"/>
</g>
</svg>
