<?xml version="1.0" encoding="utf-8"?>
<!-- Generator: Adobe Illustrator 15.1.0, SVG Export Plug-In . SVG Version: 6.00 Build 0)  -->
<!DOCTYPE svg PUBLIC "-//W3C//DTD SVG 1.1//EN" "http://www.w3.org/Graphics/SVG/1.1/DTD/svg11.dtd">
<svg version="1.1" id="Layer_1" xmlns="http://www.w3.org/2000/svg" xmlns:xlink="http://www.w3.org/1999/xlink" x="0px" y="0px"
	 width="74px" height="21px" viewBox="0 0 74 21" enable-background="new 0 0 74 21" xml:space="preserve">
<g>
	<path fill="#8DC63F" d="M0,0h2.58v12.258c0,3.334,1.854,6.076,5.43,6.076c3.575,0,5.43-2.742,5.43-6.076V0h2.581v13.012
		c0,4.408-3.333,7.74-8.064,7.74C3.333,20.752,0,17.42,0,13.012V0z"/>
	<path fill="#8DC63F" d="M20.803,0v19.324v1.105h-2.419V0H20.803z"/>
	<path fill="#8DC63F" d="M24.435,3.038h2.419v3.387h2.232v2.123h-2.232v10.227h1.481l0,1.654h-3.901V8.548h-1.936V6.425h1.936V3.038
		z"/>
	<path fill="#9A8B7D" d="M34.42,3.938c0,0.899-0.73,1.629-1.629,1.629c-0.9,0-1.629-0.73-1.629-1.629c0-0.9,0.729-1.63,1.629-1.63
		C33.69,2.308,34.42,3.038,34.42,3.938 M34.035,18.777V14.09l1.142-0.008V8.563V7.477c0-0.592-0.453-1.07-1.045-1.07H31.5
		c-0.592,0-1.071,0.479-1.071,1.07v1.048v5.563l1.074,0.002v6.34l2.528-0.004L34.035,18.777z"/>
	<path fill="#8DC63F" d="M36.934,0.075h5.623c5.66,0,6.834,3.733,6.834,6.323c0,2.078-0.844,3.673-1.717,4.546
		c-1.414,1.416-3.342,1.746-6.262,1.746h-2.207l0.002,7.828h-2.273V0.075z M42.564,10.559c3.764,0,4.576-2.083,4.576-4.191
		c0-2.409-1.354-4.208-3.613-4.208h-4.322v8.4H42.564z"/>
	<path fill="#8DC63F" d="M50.67,6.477h2.227v3.022h0.061c0.902-2.379,2.709-3.161,4.486-3.161h1.836v2.091h-1.506
		c-3.281,0-4.674,2.305-4.674,5.556v4.857h1.477v1.676H50.67V6.477z"/>
	<path fill="#8DC63F" d="M66.209,5.886c4.275,0,7.467,3.222,7.467,7.526c0,4.307-3.221,7.527-7.496,7.527s-7.467-3.221-7.467-7.527
		C58.713,9.107,61.904,5.886,66.209,5.886z M66.178,18.816c2.871,0,5.031-2.297,5.031-5.404c0-3.073-2.16-5.403-5.031-5.403
		c-2.836,0-4.998,2.33-4.998,5.403C61.18,16.52,63.342,18.816,66.178,18.816z"/>
</g>
</svg>
